<?xml version="1.0" encoding="UTF-8" standalone="no"?>
<!-- Created with Inkscape (http://www.inkscape.org/) -->

<svg
   xmlns:dc="http://purl.org/dc/elements/1.1/"
   xmlns:cc="http://creativecommons.org/ns#"
   xmlns:rdf="http://www.w3.org/1999/02/22-rdf-syntax-ns#"
   xmlns:svg="http://www.w3.org/2000/svg"
   xmlns="http://www.w3.org/2000/svg"
   xmlns:sodipodi="http://sodipodi.sourceforge.net/DTD/sodipodi-0.dtd"
   xmlns:inkscape="http://www.inkscape.org/namespaces/inkscape"
   width="744.09448819"
   height="1052.3622047"
   id="svg2"
   version="1.1"
   inkscape:version="0.48.2 r9819"
   sodipodi:docname="sprites.svg">
  <defs
     id="defs4" />
  <sodipodi:namedview
     id="base"
     pagecolor="#ffffff"
     bordercolor="#666666"
     borderopacity="1.0"
     inkscape:pageopacity="0.0"
     inkscape:pageshadow="2"
     inkscape:zoom="0.24748737"
     inkscape:cx="-823.39835"
     inkscape:cy="-60.242417"
     inkscape:document-units="px"
     inkscape:current-layer="layer1"
     showgrid="false"
     showguides="true"
     inkscape:guide-bbox="true"
     inkscape:window-width="1225"
     inkscape:window-height="942"
     inkscape:window-x="254"
     inkscape:window-y="151"
     inkscape:window-maximized="0">
    <sodipodi:guide
       orientation="1,0"
       position="-661.42857,527.14286"
       id="guide3773" />
    <sodipodi:guide
       orientation="1,0"
       position="-244.28571,418.57143"
       id="guide3775" />
    <sodipodi:guide
       orientation="0,1"
       position="-351.53309,-56.568543"
       id="guide3824" />
    <sodipodi:guide
       orientation="0,1"
       position="-155.56349,-415.1727"
       id="guide3015" />
  </sodipodi:namedview>
  <metadata
     id="metadata7">
    <rdf:RDF>
      <cc:Work
         rdf:about="">
        <dc:format>image/svg+xml</dc:format>
        <dc:type
           rdf:resource="http://purl.org/dc/dcmitype/StillImage" />
        <dc:title></dc:title>
      </cc:Work>
    </rdf:RDF>
  </metadata>
  <g
     inkscape:label="Layer 1"
     inkscape:groupmode="layer"
     id="layer1">
    <rect
       style="fill:#ffb380;fill-opacity:1;stroke:#baa300;stroke-width:2.50000024;stroke-linecap:round;stroke-linejoin:miter;stroke-miterlimit:10;stroke-opacity:1;stroke-dasharray:none"
       id="rect3766"
       width="1385.9293"
       height="2276.0964"
       x="-824.28448"
       y="-171.94272" />
    <g
       id="g3759"
       transform="matrix(0.99980352,0.01982206,-0.01982206,0.99980352,-734.60791,-83.652341)"
       style="fill:#ffdf00;fill-opacity:1;stroke:#baa300;stroke-width:15;stroke-linejoin:round;stroke-miterlimit:10;stroke-opacity:1;stroke-dasharray:none"
       inkscape:export-filename="/Users/akop/Desktop/star_on.png"
       inkscape:export-xdpi="2.95"
       inkscape:export-ydpi="2.95">
      <path
         transform="matrix(0.86893509,0.49492605,-0.49492605,0.86893509,167.94804,-104.07724)"
         d="M 499.09806,341.37912 337.45977,336.63594 264.27605,480.83571 218.83811,325.64284 59.080969,300.60117 192.63707,209.42988 167.08544,49.753507 295.06559,148.59943 439.03095,74.95567 384.57094,227.21709 z"
         inkscape:randomized="0"
         inkscape:rounded="0"
         inkscape:flatsided="false"
         sodipodi:arg2="1.0348875"
         sodipodi:arg1="0.40656889"
         sodipodi:r2="101.33799"
         sodipodi:r1="232.32193"
         sodipodi:cy="249.50504"
         sodipodi:cx="285.71429"
         sodipodi:sides="5"
         id="path2985"
         style="fill:#ffdf00;fill-opacity:1;stroke:#baa300;stroke-width:15;stroke-linecap:round;stroke-linejoin:round;stroke-miterlimit:10;stroke-opacity:1;stroke-dasharray:none"
         sodipodi:type="star" />
    </g>
    <path
       transform="matrix(0.85895391,0.51205289,-0.51205289,0.85895391,-75.785683,-187.2372)"
       d="M 499.09806,341.37912 337.45977,336.63594 264.27605,480.83571 218.83811,325.64284 59.080969,300.60117 192.63707,209.42988 167.08544,49.753507 295.06559,148.59943 439.03095,74.95567 384.57094,227.21709 z"
       inkscape:randomized="0"
       inkscape:rounded="0"
       inkscape:flatsided="false"
       sodipodi:arg2="1.0348875"
       sodipodi:arg1="0.40656889"
       sodipodi:r2="101.33799"
       sodipodi:r1="232.32193"
       sodipodi:cy="249.50504"
       sodipodi:cx="285.71429"
       sodipodi:sides="5"
       id="path3764"
       style="fill:#e6e6e6;fill-opacity:1;stroke:#808080;stroke-width:15;stroke-linecap:round;stroke-linejoin:round;stroke-miterlimit:4;stroke-opacity:1;stroke-dasharray:none;opacity:0.5"
       sodipodi:type="star"
       inkscape:export-filename="/Users/akop/Desktop/star_off.png"
       inkscape:export-xdpi="2.95"
       inkscape:export-ydpi="2.95" />
    <g
       id="g3779"
       inkscape:export-filename="/Users/akop/Desktop/unread_on.png"
       inkscape:export-xdpi="3.1500001"
       inkscape:export-ydpi="3.1500001">
      <rect
         y="597.79352"
         x="-658.61945"
         height="286.88333"
         width="414.16254"
         id="rect3769"
         style="opacity:1;fill:#ffdf00;fill-opacity:1;stroke:#baa300;stroke-width:15;stroke-linecap:round;stroke-linejoin:round;stroke-miterlimit:4;stroke-opacity:1;stroke-dasharray:none" />
      <path
         sodipodi:nodetypes="ccc"
         inkscape:connector-curvature="0"
         id="path3771"
         d="m -652.53824,605.81384 205.39538,130.15329 198.66564,-130.15329"
         style="fill:none;stroke:#baa300;stroke-width:15;stroke-linecap:butt;stroke-linejoin:miter;stroke-miterlimit:4;stroke-opacity:1;stroke-dasharray:none" />
    </g>
    <g
       id="g3783"
       transform="translate(501.42857,-1.4285714)"
       style="stroke:#808080;stroke-opacity:1;fill:#e6e6e6;fill-opacity:1;opacity:0.5"
       inkscape:export-filename="/Users/akop/Desktop/unread_off.png"
       inkscape:export-xdpi="3.1500001"
       inkscape:export-ydpi="3.1500001">
      <rect
         style="fill:#e6e6e6;fill-opacity:1;stroke:#808080;stroke-width:15;stroke-linecap:round;stroke-linejoin:round;stroke-miterlimit:4;stroke-opacity:1;stroke-dasharray:none"
         id="rect3785"
         width="414.16254"
         height="286.88333"
         x="-658.61945"
         y="597.79352" />
      <path
         style="fill:#e6e6e6;stroke:#808080;stroke-width:15;stroke-linecap:butt;stroke-linejoin:miter;stroke-miterlimit:4;stroke-opacity:1;stroke-dasharray:none;fill-opacity:1"
         d="m -652.53824,605.81384 205.39538,130.15329 198.66564,-130.15329"
         id="path3787"
         inkscape:connector-curvature="0"
         sodipodi:nodetypes="ccc" />
    </g>
    <path
       style="opacity:1;fill:#ffdf00;fill-opacity:1;stroke:#baa300;stroke-width:15;stroke-linecap:round;stroke-linejoin:round;stroke-miterlimit:4;stroke-opacity:1;stroke-dasharray:none"
       d="M -452.84375 993.78125 C -568.03457 993.78125 -661.4375 1087.1527 -661.4375 1202.3438 C -661.4375 1317.5344 -568.03457 1410.9062 -452.84375 1410.9062 C -337.65293 1410.9062 -244.28125 1317.5346 -244.28125 1202.3438 C -244.28125 1087.1527 -337.65293 993.78125 -452.84375 993.78125 z M -535.375 1070.5312 C -514.17511 1070.5312 -497 1087.7376 -497 1108.9375 C -497 1130.1374 -514.17511 1147.3125 -535.375 1147.3125 C -556.57489 1147.3125 -573.78125 1130.1374 -573.78125 1108.9375 C -573.78125 1087.7376 -556.57489 1070.5312 -535.375 1070.5312 z M -359.625 1074.5938 C -338.42511 1074.5938 -321.21875 1091.7689 -321.21875 1112.9688 C -321.21875 1134.1686 -338.42511 1151.3438 -359.625 1151.3438 C -380.82489 1151.3438 -398 1134.1686 -398 1112.9688 C -398 1091.7689 -380.82489 1074.5938 -359.625 1074.5938 z M -589.9375 1235.8125 L -454.5625 1235.8125 L -319.21875 1235.8125 C -319.21875 1306.3283 -379.80499 1363.5 -454.5625 1363.5 C -529.32001 1363.5 -589.9375 1306.3283 -589.9375 1235.8125 z "
       id="path3810" />
    <path
       id="path3829"
       d="m 55.727679,989.74318 c -115.19082,0 -208.593749,93.37142 -208.593749,208.56252 0,115.1906 93.402929,208.5624 208.593749,208.5624 115.190821,0 208.562501,-93.3716 208.562501,-208.5624 0,-115.1911 -93.37168,-208.56252 -208.562501,-208.56252 z m -82.53125,76.74992 c 21.1998896,0 38.375,17.2064 38.375,38.4063 0,21.1999 -17.1751104,38.375 -38.375,38.375 -21.19989,0 -38.40625,-17.1751 -38.40625,-38.375 0,-21.1999 17.20636,-38.4063 38.40625,-38.4063 z m 175.750001,4.0626 c 21.19989,0 38.40625,17.1751 38.40625,38.375 0,21.1998 -17.20636,38.375 -38.40625,38.375 -21.19989,0 -38.375,-17.1752 -38.375,-38.375 0,-21.1999 17.17511,-38.375 38.375,-38.375 z m -230.312501,161.2187 135.375,0 135.343751,0 c 0,70.5158 -60.58624,127.6875 -135.343751,127.6875 -74.75751,0 -135.375,-57.1717 -135.375,-127.6875 z"
       style="fill:#e6e6e6;fill-opacity:1;stroke:#808080;stroke-width:15;stroke-linecap:round;stroke-linejoin:round;stroke-miterlimit:4;stroke-opacity:1;stroke-dasharray:none;opacity:0.5"
       inkscape:connector-curvature="0" />
    <g
       id="g3801"
       transform="matrix(0.77174118,-0.44556498,0.44556498,0.77174118,-804.85053,291.46936)"
       inkscape:export-filename="/Users/akop/Desktop/tag.png"
       inkscape:export-xdpi="3.1500001"
       inkscape:export-ydpi="3.1500001">
      <path
         id="rect3006"
         d="m -661.4375,1467.5312 0,284.875 307.15625,0 109.8125,-70.875 0,-71.7187 0,-71.7187 -109.8125,-70.5626 -307.15625,0 z m 357.96875,110.625 c 17.57359,0 31.8125,14.239 31.8125,31.8126 0,17.5735 -14.23891,31.8124 -31.8125,31.8124 -17.57359,0 -31.8125,-14.2389 -31.8125,-31.8124 0,-17.5736 14.23891,-31.8126 31.8125,-31.8126 z"
         style="fill:#ffdf00;fill-opacity:1;stroke:#baa300;stroke-width:16.83256149;stroke-linecap:round;stroke-linejoin:round;stroke-miterlimit:4;stroke-opacity:1"
         inkscape:connector-curvature="0" />
      <path
         sodipodi:nodetypes="cc"
         inkscape:connector-curvature="0"
         id="path3023"
         d="m -612.15247,1556.2253 208.09142,0"
         style="opacity:0.42990657;fill:none;stroke:#baa300;stroke-width:16.83256149;stroke-linecap:round;stroke-linejoin:round;stroke-miterlimit:4;stroke-opacity:1;stroke-dasharray:none" />
      <path
         sodipodi:nodetypes="cc"
         style="opacity:0.42990657;fill:none;stroke:#baa300;stroke-width:16.83256149;stroke-linecap:round;stroke-linejoin:round;stroke-miterlimit:4;stroke-opacity:1;stroke-dasharray:none"
         d="m -612.15247,1616.2253 208.09142,0"
         id="path3793"
         inkscape:connector-curvature="0" />
      <path
         sodipodi:nodetypes="cc"
         inkscape:connector-curvature="0"
         id="path3795"
         d="m -612.15247,1676.2253 208.09142,0"
         style="opacity:0.42990657;fill:none;stroke:#baa300;stroke-width:16.83256149;stroke-linecap:round;stroke-linejoin:round;stroke-miterlimit:4;stroke-opacity:1;stroke-dasharray:none" />
    </g>
    <g
       id="g3842"
       style="opacity:0.5">
      <path
         inkscape:connector-curvature="0"
         style="fill:#e6e6e6;fill-opacity:1;stroke:#808080;stroke-width:15;stroke-linecap:round;stroke-linejoin:round;stroke-miterlimit:4;stroke-opacity:1"
         d="m -164.28572,1701.5941 126.930327,219.8498 237.045123,-136.8581 53.16741,-103.6257 -31.95534,-55.3483 -31.95534,-55.3483 -116.18705,-5.5274 -237.04513,136.858 z m 325.54985,-74.1244 c 13.56227,-7.8302 30.89542,-3.1857 38.7256,10.3765 7.83014,13.5622 3.18574,30.8953 -10.37652,38.7255 -13.56227,7.8302 -30.89538,3.1858 -38.72551,-10.3764 -7.83018,-13.5623 -3.18583,-30.8954 10.37643,-38.7256 z"
         id="path3830" />
      <path
         style="opacity:0.42990656999999999;fill:none;stroke:#808080;stroke-width:15;stroke-linecap:round;stroke-linejoin:round;stroke-miterlimit:4;stroke-opacity:1;stroke-dasharray:none"
         d="M -86.731445,1748.0834 73.861273,1655.3651"
         id="path3832"
         inkscape:connector-curvature="0"
         sodipodi:nodetypes="cc" />
      <path
         inkscape:connector-curvature="0"
         id="path3834"
         d="M -59.997546,1794.3878 100.59517,1701.6696"
         style="opacity:0.42990656999999999;fill:none;stroke:#808080;stroke-width:15;stroke-linecap:round;stroke-linejoin:round;stroke-miterlimit:4;stroke-opacity:1;stroke-dasharray:none"
         sodipodi:nodetypes="cc" />
      <path
         style="opacity:0.42990656999999999;fill:none;stroke:#808080;stroke-width:15;stroke-linecap:round;stroke-linejoin:round;stroke-miterlimit:4;stroke-opacity:1;stroke-dasharray:none"
         d="M -33.263647,1840.6923 127.32907,1747.974"
         id="path3836"
         inkscape:connector-curvature="0"
         sodipodi:nodetypes="cc" />
    </g>
  </g>
</svg>
